<?xml version="1.0" encoding="utf-8"?>
<!-- Generator: Adobe Illustrator 16.2.1, SVG Export Plug-In . SVG Version: 6.00 Build 0)  -->
<!DOCTYPE svg PUBLIC "-//W3C//DTD SVG 1.1//EN" "http://www.w3.org/Graphics/SVG/1.1/DTD/svg11.dtd">
<svg version="1.1"
	 id="Lua" xmlns:rdf="http://www.w3.org/1999/02/22-rdf-syntax-ns#" xmlns:cc="http://creativecommons.org/ns#" xmlns:dc="http://purl.org/dc/elements/1.1/"
	 xmlns="http://www.w3.org/2000/svg" xmlns:xlink="http://www.w3.org/1999/xlink" x="0px" y="0px" width="937px" height="937px"
	 viewBox="0 0 937 937" enable-background="new 0 0 937 937" xml:space="preserve">
<title>Lua programming language logo</title>
<path fill="none" stroke="#F48821" stroke-width="10.597" stroke-dasharray="39.8522" d="M880.4,266.18
	c114.506,224.72,25.159,499.717-199.562,614.223S181.121,905.562,66.615,680.842S41.456,181.124,266.177,66.618
	C411.545-7.454,585.387,1.654,722.22,90.51"/>
<g>
	<polygon fill="none" points="377.82,624.043 263.38,624.043 263.38,418.363 233.816,418.363 233.816,650.113 377.825,650.113 
		377.82,650.11 	"/>
	<path fill="none" d="M510.315,483.53v91.872c0,34.015-17.802,56.267-45.459,56.267c-20.98,0-34.333-12.716-34.333-32.743V483.526
		h-26.385v125.89c0,27.657,20.663,45.459,53.089,45.459c24.478,0,40.055-8.583,55.632-30.518v25.75h23.841V483.53H510.315z"/>
	<path fill="none" d="M724.778,630.079c-9.219,0-14.305-4.769-14.305-13.034V524.22c0-29.563-21.617-45.459-62.625-45.459
		c-40.373,0-65.169,15.577-66.758,54.042h26.702c2.226-20.345,14.306-29.563,39.102-29.563c23.842,0,37.194,8.9,37.194,24.796v6.993
		c0,11.126-6.676,15.896-27.657,18.438c-37.513,4.768-43.234,6.04-53.406,10.173c-19.392,7.947-29.246,22.888-29.246,43.233
		c0,30.2,20.981,48.002,54.678,48.002c21.3,0,41.962-8.9,56.585-24.478c2.861,12.716,14.306,21.935,27.34,21.935
		c5.403,0,9.536-0.636,18.119-2.86v-0.002v-20.026C727.639,630.079,726.367,630.079,724.778,630.079z M684.088,592.568
		c0,23.842-24.16,39.101-49.91,39.101c-20.663,0-32.743-7.312-32.743-25.432c0-17.484,11.762-25.114,40.055-29.246
		c27.976-3.814,33.697-5.086,42.599-9.219V592.568z"/>
	<path fill="#F48821" d="M473.5,120.29c-195.073,0-353.21,158.138-353.21,353.21S278.427,826.71,473.5,826.71
		c195.072,0,353.209-158.138,353.209-353.21S668.573,120.29,473.5,120.29z M233.816,650.113v-231.75h29.564v205.68H377.82v26.067
		l0.006,0.003H233.816z M536.699,650.11v-0.003h-23.841v-25.75c-15.577,21.935-31.154,30.518-55.632,30.518
		c-32.426,0-53.089-17.802-53.089-45.459v-125.89h26.385v115.399c0,20.027,13.353,32.743,34.333,32.743
		c27.657,0,45.459-22.252,45.459-56.267V483.53h26.385v166.577h0.001L536.699,650.11z M516.36,327.2
		c0-57.134,46.316-103.45,103.45-103.45s103.45,46.316,103.45,103.45s-46.316,103.45-103.45,103.45S516.36,384.334,516.36,327.2z
		 M730.5,649.472c-8.583,2.225-12.716,2.86-18.119,2.86c-13.034,0-24.479-9.219-27.34-21.935
		c-14.623,15.577-35.285,24.478-56.585,24.478c-33.696,0-54.678-17.802-54.678-48.002c0-20.346,9.854-35.286,29.246-43.233
		c10.172-4.133,15.894-5.405,53.406-10.173c20.981-2.543,27.657-7.312,27.657-18.438v-6.993c0-15.896-13.353-24.796-37.194-24.796
		c-24.796,0-36.876,9.219-39.102,29.563H581.09c1.589-38.465,26.385-54.042,66.758-54.042c41.008,0,62.625,15.896,62.625,45.459
		v92.825c0,8.266,5.086,13.034,14.305,13.034c1.59,0,2.861,0,5.723-0.636v20.026V649.472z"/>
	<path fill="#F48821" d="M601.435,606.237c0,18.12,12.08,25.432,32.743,25.432c25.75,0,49.91-15.259,49.91-39.101v-24.796
		c-8.901,4.133-14.623,5.404-42.599,9.219C613.197,581.123,601.435,588.753,601.435,606.237z"/>
	<polygon fill="#FFFFFF" points="536.699,650.11 536.7,650.107 536.699,650.107 	"/>
</g>
<circle fill="#F48821" cx="826.72" cy="120.29" r="103.46"/>
</svg>
